<?xml version="1.0" standalone="no"?>
<!DOCTYPE svg PUBLIC "-//W3C//DTD SVG 20010904//EN"
 "http://www.w3.org/TR/2001/REC-SVG-20010904/DTD/svg10.dtd">
<svg version="1.0" xmlns="http://www.w3.org/2000/svg"
 width="176.000000pt" height="176.000000pt" viewBox="0 0 176.000000 176.000000"
 preserveAspectRatio="xMidYMid meet">
<metadata>
Created by potrace 1.11, written by Peter Selinger 2001-2013
</metadata>
<g transform="translate(0.000000,176.000000) scale(0.100000,-0.100000)"
fill="#000000" stroke="none">
<path d="M642 1560 c-343 -90 -577 -351 -587 -655 -4 -115 14 -196 65 -301 69
-138 201 -264 353 -338 84 -40 216 -80 297 -90 62 -8 203 -9 240 -1 13 2 42 7
65 10 115 17 282 95 390 182 113 92 215 249 244 378 39 170 2 352 -102 505
-43 62 -136 150 -188 178 -43 23 -43 23 -14 1 62 -46 172 -169 203 -227 62
-116 77 -176 76 -307 -2 -260 -166 -486 -438 -604 -44 -18 -98 -36 -122 -39
-39 -4 -45 -1 -89 44 -67 68 -109 161 -108 239 1 33 6 74 13 90 17 44 98 161
123 178 44 28 131 51 240 63 55 6 60 5 88 -22 57 -55 141 -23 170 65 12 34 11
36 -31 73 -33 29 -51 38 -79 38 -45 0 -87 -39 -97 -88 -4 -20 -13 -32 -23 -33
-9 0 -24 -2 -33 -4 -26 -5 -97 -15 -151 -21 l-48 -6 51 71 c44 61 54 69 69 59
27 -16 64 -3 84 31 17 29 17 30 -5 55 -33 37 -73 41 -98 9 -11 -14 -20 -33
-20 -42 0 -9 -61 -77 -135 -151 l-134 -135 -21 49 -20 48 25 30 c38 45 42 74
14 104 -73 78 -166 59 -184 -38 -8 -42 67 -124 102 -111 12 4 39 -70 46 -129
4 -32 2 -38 -14 -38 -10 0 -34 14 -54 31 -31 28 -35 35 -29 65 12 65 -75 110
-124 64 -12 -12 -22 -24 -23 -28 0 -4 -2 -15 -4 -25 -5 -27 42 -77 74 -77 15
0 32 5 38 11 8 8 18 1 38 -29 47 -71 68 -140 71 -237 3 -78 0 -97 -21 -143
-33 -71 -57 -81 -144 -59 -372 97 -610 440 -536 772 58 264 284 477 570 540
38 9 49 14 30 14 -16 0 -63 -9 -103 -19z"/>
<path d="M718 1432 c-31 -22 -38 -32 -38 -65 0 -30 36 -71 72 -80 28 -8 88 51
88 85 0 50 -79 89 -122 60z"/>
<path d="M1180 1372 c-37 -37 -38 -70 -5 -111 31 -36 54 -45 89 -32 29 12 66
65 65 96 0 25 -48 63 -88 71 -25 5 -36 1 -61 -24z"/>
<path d="M403 1285 c-37 -41 -9 -115 42 -115 26 0 61 31 71 64 14 43 -82 87
-113 51z"/>
<path d="M936 1249 c-75 -59 -70 -148 11 -204 46 -31 77 -32 119 -3 34 24 74
91 74 126 0 22 -58 78 -97 93 -39 15 -78 11 -107 -12z"/>
<path d="M607 1226 c-54 -50 -43 -112 24 -149 27 -15 39 -17 61 -8 31 12 68
65 68 97 0 24 -34 58 -73 73 -41 16 -51 14 -80 -13z"/>
<path d="M1370 1188 c-17 -28 -17 -34 -5 -58 29 -56 99 -58 124 -3 16 36 14
49 -15 72 -40 32 -80 28 -104 -11z"/>
<path d="M346 1030 c-49 -55 -52 -102 -10 -157 28 -37 72 -63 106 -63 55 0
121 68 134 138 5 26 2 38 -17 59 -35 36 -92 63 -137 63 -34 0 -45 -6 -76 -40z"/>
<path d="M1152 777 c-44 -45 -52 -94 -23 -141 61 -98 159 -93 218 10 30 51 29
75 -4 106 -49 44 -77 58 -118 58 -33 0 -47 -6 -73 -33z"/>
<path d="M423 728 c-12 -13 -24 -38 -28 -56 -6 -29 -3 -37 30 -67 20 -19 43
-35 50 -35 51 0 112 70 101 114 -7 30 -64 66 -103 66 -18 0 -38 -9 -50 -22z"/>
</g>
</svg>
